<?xml version="1.0" encoding="utf-8" ?><svg xmlns="http://www.w3.org/2000/svg" xmlns:xlink="http://www.w3.org/1999/xlink" width="1875" height="1024" viewBox="0 0 1875 1024"><path fill="#60269E" d="M1255.06 419.025C1272.4 418.337 1289.93 418.871 1307.3 418.844L1407.71 418.69C1418.89 456.451 1438.58 491.838 1466.56 519.723C1493.19 546.165 1526.43 564.97 1562.8 574.174C1611.51 586.754 1663.54 582.036 1713.37 581.909L1873.13 581.759L1873.15 679.375C1873.16 695.331 1874.26 712.144 1872.84 728.018C1854.17 728.566 1835.6 727.927 1816.93 727.875L1724.02 728.083C1624.3 728.426 1536.45 732.397 1445.28 683.991C1420.38 671.017 1397.08 655.165 1375.87 636.758C1323.71 590.976 1280.08 525.878 1261.46 458.954C1257.97 446.418 1254.77 433.214 1253.93 420.19L1255.06 419.025Z"/><path d="M748.209 860.538C758.956 859.581 770.368 860.14 781.191 860.039C791.039 872.269 799.95 885.421 809.362 898.009C824.624 918.307 840.212 938.359 856.118 958.156L856.146 860.475C867.944 860.033 879.787 860.311 891.591 860.384L891.674 964.551C891.743 982.926 893.303 1002.33 891.32 1020.58C889.407 1021.94 887.812 1021.67 885.544 1021.77L861.045 1021.54C850.227 1008.68 840.387 994.875 830.237 981.478L783.656 920.42L783.567 1021.72L748.299 1021.85C747.35 968.178 747.84 914.22 748.209 860.538Z"/><path d="M649.199 860.608C661.063 859.621 673.677 859.902 685.564 860.568C685.497 879.102 686.506 1018.2 685.425 1020.4C685.196 1020.87 684.751 1021.19 684.413 1021.59L680.923 1021.71C670.338 1021.67 659.752 1021.76 649.169 1021.97L649.224 957.937C627.774 957.237 606.106 957.366 584.647 957.766C583.495 978.949 584.247 1000.41 584.379 1021.62L548.379 1021.89L548.307 905.268C548.301 894.524 546.604 869.434 548.922 860.432C560.657 859.729 572.733 860.199 584.49 860.424C584.044 881.791 584.112 903.166 584.693 924.531C605.984 923.447 627.81 924.349 649.155 924.391L649.199 860.608Z"/><path d="M181.297 860.245C222.036 861.186 262.92 860.03 303.686 860.382L303.564 892.641L216.656 892.785C216.337 903.272 216.542 913.752 216.697 924.239L292.675 924.259L292.529 956.485L224.671 956.467L216.684 956.926C216.607 968.022 216.636 979.118 216.773 990.214C246.027 990.224 275.364 989.819 304.607 990.547L304.577 1021.64C290.62 1022.11 276.463 1021.55 262.487 1021.54C235.423 1021.45 208.359 1021.59 181.297 1021.95L181.297 860.245Z"/><path d="M1165.38 860.268C1177.37 859.995 1189.42 860.228 1201.42 860.219C1201.05 903.219 1200.44 946.315 1201.63 989.303L1281.61 989.446C1281.66 1000.13 1282.09 1010.99 1281.29 1021.65C1242.68 1020.94 1204.06 1021 1165.45 1021.83C1164.51 968.038 1165.39 914.078 1165.38 860.268Z"/><path fill="#60269E" d="M552.581 0L744.972 0C808.333 81.2345 872.407 161.909 937.188 242.015C981.548 183.296 1028.76 126.59 1074.58 69.0011L1108.38 26.5105C1115.35 17.8009 1122.89 9.27286 1129.09 0L1321.84 0C1312.43 15.9772 1298.31 30.1788 1286.69 44.6773L1216.43 133.192L1102.95 275.93C1079.73 305.31 1057.36 335.838 1032.5 363.837C1045.81 376.626 1056.71 393.398 1068.09 407.961L1129.28 485.233L1253.78 641.895C1276.52 670.487 1299.93 698.379 1321.65 727.773L1129.11 728.076C1099.56 689.951 1069.65 652.109 1039.38 614.555C1005.26 571.646 971.534 528.363 936.911 485.866C911.324 516.241 887.298 547.878 862.681 579.035L744.419 728.084L551.825 728.112C565.845 706.663 583.515 687.516 599.509 667.523L686.267 558.307L784.504 434.819C803.147 411.235 820.453 386.458 841.038 364.483C816.803 330.94 789.344 299.034 763.568 266.628L626.129 93.5391C601.369 62.5605 575.519 32.3848 552.581 0Z"/><path fill="#60269E" d="M466.138 418.971C517.511 419.179 569.071 420.26 620.43 419.167C606.669 511.34 551.876 598.179 477.139 653.578C421.236 694.885 355.037 719.984 285.81 726.117C246.013 729.547 205.746 727.984 165.84 727.906L0 728.071L0 582.146L153.981 581.908C245.786 582.07 334.471 592.459 405.96 520.883C434.172 492.636 454.137 456.921 466.138 418.971Z"/><path fill="#60269E" d="M0 0L268.913 0L269.813 0.220921C278.82 2.36935 288.393 1.69 297.565 2.64889C311.626 4.11878 325.801 7.16181 339.544 10.4425C434.554 32.3766 517.016 91.0561 568.899 173.649C594.426 214.268 615.128 260.581 620.265 308.597L466.075 308.737C446.225 249.528 411.727 198.312 354.596 169.887C333.651 159.539 311.241 152.473 288.15 148.935C247.837 142.822 205.888 145.606 165.257 145.632C110.172 145.167 55.0845 145.189 1.30104e-14 145.697L0 0Z"/><path fill="#60269E" d="M1606.03 0L1873.17 0L1873.12 145.629C1818.54 145.323 1763.97 145.339 1709.39 145.678C1666.24 145.592 1621.41 142.38 1578.74 150.065C1551.97 154.884 1526.34 164.661 1503.16 178.894C1457.84 206.899 1420.42 256.613 1408.15 308.682C1356.72 308.281 1305.28 308.301 1253.84 308.743C1256.84 261.71 1281.66 211.088 1306.56 171.417C1357.85 90.8015 1438.48 33.3059 1531.39 11.09C1545.25 7.77332 1559.62 4.7113 1573.8 3.24127C1584.07 2.17654 1595.09 2.62567 1605.13 0.223666L1606.03 0Z"/><path d="M1384.43 1024C1359.29 1016.2 1338.1 1005.33 1325.31 981.201C1315.89 963.446 1312.53 937.714 1318.53 918.376C1325.32 896.496 1339.1 878.077 1359.58 867.359C1381.31 855.99 1407.72 854.398 1430.98 861.819C1451.52 868.174 1468.62 882.577 1478.37 901.747C1488.63 922.236 1490.48 945.92 1483.53 967.754C1476.72 988.431 1461.95 1005.54 1442.5 1015.3C1434.89 1019.15 1426.89 1021.56 1418.75 1024L1384.43 1024ZM1406.71 990.22C1434.05 987.387 1453.85 962.807 1450.81 935.472C1447.77 908.138 1423.05 888.518 1395.75 891.771C1368.75 894.99 1349.39 919.396 1352.4 946.435C1355.41 973.474 1379.66 993.023 1406.71 990.22Z"/><path d="M1012.98 1024C987.405 1016.54 966.451 1006.07 953.099 981.89C942.146 962.057 940.368 937.936 946.667 916.308C952.75 895.723 966.817 878.432 985.729 868.292C1007.25 856.603 1033.58 854.347 1056.95 861.415C1077.57 867.476 1094.93 881.506 1105.19 900.402C1116.01 920.674 1117.8 945.463 1111.05 967.349C1104.76 987.778 1089.92 1004.67 1071.11 1014.57C1063.18 1018.74 1054.72 1021.65 1046.09 1024L1012.98 1024ZM1035.01 990.129C1062.07 986.786 1081.34 962.184 1078.1 935.098C1074.87 908.013 1050.35 888.641 1023.27 891.767C996.029 894.912 976.532 919.606 979.783 946.844C983.035 974.083 1007.8 993.49 1035.01 990.129Z"/><path d="M1597.99 1024C1573.22 1016.81 1552.66 1006.34 1539.84 982.901C1528.91 962.921 1527.25 937.827 1533.65 916.132C1539.76 895.344 1553.92 877.861 1572.99 867.572C1594.95 855.763 1622.46 854.158 1646.13 861.453C1658.34 865.216 1669.01 871.93 1679.23 879.442C1671.76 888.869 1664.26 898.71 1655.95 907.408C1642.28 897.109 1627.05 888.258 1609.14 890.872C1596.57 892.788 1585.27 899.639 1577.75 909.908C1569.37 921.204 1565.87 935.4 1568.06 949.301C1570.14 962.549 1576.96 974.863 1587.87 982.812C1599.19 991.057 1612.69 993.668 1626.4 991.307C1634.72 989.874 1642.04 986.748 1649.34 982.652L1649.41 959.735L1614.21 959.686L1614.18 929.451C1637.55 929.396 1661.18 928.7 1684.52 929.568L1684.55 999.95C1667.5 1011.48 1651.86 1018.25 1632.14 1024L1597.99 1024Z"/><path d="M417.714 1024C392.804 1016.43 372.38 1005.52 359.744 981.725C349.009 961.511 347.301 936.238 354.069 914.477C360.453 894.03 374.663 876.939 393.597 866.934C415.693 855.381 442.914 854.665 466.421 862.18C479.053 866.218 490.239 873.088 499.19 882.929C491.279 891.612 483.441 900.361 475.676 909.174C461.83 898.413 447.444 888.869 428.898 891.032C416.987 892.421 406.362 898.686 398.995 908.094C390.205 919.323 386.259 933.597 388.034 947.749C389.667 960.908 395.892 974.027 406.579 982.179C416.593 989.818 429.934 992.52 442.292 990.785C456.219 988.829 466.327 981.414 476.462 972.373C484.48 980.021 492.58 987.682 500.017 995.904C485.294 1010.48 470.603 1018.06 450.865 1024L417.714 1024Z"/><path d="M1834.31 860.11C1847.86 859.926 1861.44 860.092 1875 860.086L1875 861.76C1853.37 892.916 1834.26 925.528 1813.61 957.31L1813.54 1021.59L1777.22 1021.73L1777.17 957.581C1755.9 925.753 1735.37 893.43 1715.62 860.641C1729.31 859.53 1743.69 859.887 1757.42 860.448C1770.55 881.356 1783.26 902.517 1795.56 923.918C1809.57 903.437 1821.72 881.481 1834.31 860.11Z"/><path d="M0 860.104C44.5293 860.808 89.091 859.766 133.63 860.271L133.617 893.738C117.304 893.705 100.784 893.108 84.4956 893.773C84.0408 936.348 83.988 978.926 84.337 1021.5L49.3996 1021.95L49.3852 893.838C32.924 893.67 16.4618 893.625 0 893.705L0 860.104Z"/></svg>